{"title":"[ShepardTDS] Rosario + Vampire Season 1 Dual Audio Uncensored 72","uid":12178784,"size":2690466337,"categoryP":"video","categoryS":"tv_shows","magnet":"?xt=urn:btih:06195e2ba5dede36ffb028debad676bb5e2fa05d&amp;dn=%5BShepardTDS%5D+Rosario+%2B+Vampire+Season+1+Dual+Audio+Uncensored+72&amp;tr=udp%3A%2F%2Ftracker.openbittorrent.com%3A80&amp;tr=udp%3A%2F%2Fopen.demonii.com%3A1337&amp;tr=udp%3A%2F%2Ftracker.coppersurfer.tk%3A6969&amp;tr=udp%3A%2F%2Fexodus.desync.com%3A6969","seeders":7,"leechers":1,"uploader":"ShepardTDS","files":13,"time":1438369458,"description":"[ShepardTDS] Rosario + Vampire Season 1 Dual Audio Uncensored 720p 1-13 Complete\nComment if you have any questions and as always plz seed :)\n\n\nGeneral\nFormat : Matroska\nFile size : 196 MiB\nDuration : 24mn 36s\nOverall bit rate : 1114 Kbps\nWriting application : HandBrake 4375svn\nWriting library : libmkv 0.6.5\n\nVideo\nID : 1\nFormat : AVC\nFormat/Info : Advanced Video Codec\nFormat profile : &lt;a class=&quot;__cf_email__&quot; href=&quot;/cdn-cgi/l/email-protection&quot; data-cfemail=&quot;8fc7e6e8e7cfc3bba1bf&quot;&gt;[email&amp;#160;protected]&lt;/a&gt;&lt;script data-cfhash='f9e31' type=&quot;text/javascript&quot;&gt;\n/* &lt;![CDATA[ */!function(){try{var t=&quot;currentScript&quot;in document?document.currentScript:function(){for(var t=document.getElementsByTagName(&quot;script&quot;),e=t.length;e--;)if(t[e].getAttribute(&quot;data-cfhash&quot;))return t[e]}();if(t&amp;&amp;t.previousSibling){var e,r,n,i,c=t.previousSibling,a=c.getAttribute(&quot;data-cfemail&quot;);if(a){for(e=&quot;&quot;,r=parseInt(a.substr(0,2),16),n=2;a.length-n;n+=2)i=parseInt(a.substr(n,2),16)^r,e+=String.fromCharCode(i);e=document.createTextNode(e),c.parentNode.replaceChild(e,c)}t.parentNode.removeChild(t);}}catch(u){}}()/* ]]&gt; */&lt;/script&gt;\nFormat settings, CABAC : Yes\nFormat settings, ReFrames : 8 frames\nCodec ID : V_MPEG4/ISO/AVC\nDuration : 24mn 35s\nBit rate : 996 Kbps\nNominal bit rate : 900 Kbps\nWidth : 1280 pixels\nHeight : 720 pixels\nDisplay aspect ratio : 16:9\nFrame rate mode : Variable\nFrame rate : 24.290 fps\nColor space : YUV\nChroma subsampling : 4:2:0\nBit depth : 8 bits\nScan type : Progressive\nBits/(Pixel*Frame) : 0.045\nStream size : 175 MiB (89%)\nWriting library : x264 core 119\nLanguage : English\n\nAudio #1\nID : 2\nFormat : Vorbis\nFormat settings, Floor : 1\nCodec ID : A_VORBIS\nDuration : 24mn 36s\nBit rate : 48.0 Kbps\nChannel(s) : 1 channel\nSampling rate : 48.0 KHz\nCompression mode : Lossy\nStream size : 8.45 MiB (4%)\nLanguage : English\n\nAudio #2\nID : 3\nFormat : Vorbis\nFormat settings, Floor : 1\nCodec ID : A_VORBIS\nDuration : 24mn 36s\nBit rate : 48.0 Kbps\nChannel(s) : 1 channel\nSampling rate : 48.0 KHz\nCompression mode : Lossy\nStream size : 8.45 MiB (4%)\nLanguage : Japanese\n\nText #1\nID : 4\nFormat : SSA\nCodec ID : S_TEXT/SSA\nCodec ID/Info : Sub Station Alpha\nCompression mode : Lossless\nLanguage : English\n\nText #2\nID : 5\nFormat : SSA\nCodec ID : S_TEXT/SSA\nCodec ID/Info : Sub Station Alpha\nCompression mode : Lossless\nLanguage : Japanese","torrent":{"xt":"urn:btih:06195e2ba5dede36ffb028debad676bb5e2fa05d","amp;dn":"%5BShepardTDS%5D+Rosario+%2B+Vampire+Season+1+Dual+Audio+Uncensored+72","amp;tr":["udp%3A%2F%2Ftracker.openbittorrent.com%3A80","udp%3A%2F%2Fopen.demonii.com%3A1337","udp%3A%2F%2Ftracker.coppersurfer.tk%3A6969","udp%3A%2F%2Fexodus.desync.com%3A6969"],"infoHash":"06195e2ba5dede36ffb028debad676bb5e2fa05d","infoHashBuffer":{"type":"Buffer","data":[6,25,94,43,165,222,222,54,255,176,40,222,186,214,118,187,94,47,160,93]},"announce":[],"urlList":[]}}